<svg xmlns="http://www.w3.org/2000/svg" width="1600" height="900" viewBox="0 0 1600 900" role="img" aria-label="HCA: heavily compressed attention architecture diagram">
<defs>
  <marker id="arrow" markerWidth="13" markerHeight="13" refX="11" refY="6.5" orient="auto">
    <path d="M2 2 L11 6.5 L2 11" fill="none" stroke="#a7a18b" stroke-width="3" stroke-linecap="round" stroke-linejoin="round"/>
  </marker>
  <linearGradient id="heat" x1="0" x2="1" y1="0" y2="1">
    <stop offset="0" stop-color="#0ea5a8"/>
    <stop offset="0.45" stop-color="#14b8a6"/>
    <stop offset="0.7" stop-color="#1d4ed8"/>
    <stop offset="1" stop-color="#7e22ce"/>
  </linearGradient>
  <linearGradient id="hot" x1="0" x2="1" y1="0" y2="1">
    <stop offset="0" stop-color="#0f766e"/>
    <stop offset="0.45" stop-color="#22c55e"/>
    <stop offset="0.72" stop-color="#fde047"/>
    <stop offset="1" stop-color="#7e22ce"/>
  </linearGradient>
  <style>
  .bg { fill: #050608; }
  .muted { fill: #a7a18b; font: 600 18px Inter, ui-sans-serif, system-ui, sans-serif; }
  .small { fill: #a7a18b; font: 500 14px Inter, ui-sans-serif, system-ui, sans-serif; }
  .title { fill: #f7f3df; font: 700 34px Inter, ui-sans-serif, system-ui, sans-serif; }
  .subtitle { fill: #b9b095; font: 500 18px Inter, ui-sans-serif, system-ui, sans-serif; }
  .formula { fill: #f7f3df; font: italic 24px Georgia, serif; }
  .box { fill: #101214; stroke: #a7a18b; stroke-width: 3; }
  .matrix { stroke: #0b1720; stroke-width: 1; }
  .arrow { fill: none; stroke: #a7a18b; stroke-width: 4; stroke-linecap: round; stroke-linejoin: round; marker-end: url(#arrow); }
  .line { fill: none; stroke: #a7a18b; stroke-width: 3; stroke-linecap: round; stroke-linejoin: round; }
</style>
</defs>
<rect class="bg" width="1600" height="900"/>
<text x="80" y="82" class="title">HCA: heavily compressed attention</text>
<text x="82" y="118" class="subtitle">single-stream block compression, then shared-KV attention over compressed entries</text>
<text x="82" y="850" class="small">HCA is simpler than CSA: no sparse indexer and no local branch, just heavier block compression.</text>
<rect x="90" y="255" width="170" height="250" fill="#071013" stroke="#17202a"/>
<rect class="matrix" x="90.0" y="255.0" width="34.5" height="28.3" fill="#fde047"/>
<rect class="matrix" x="124.0" y="255.0" width="34.5" height="28.3" fill="#14b8a6"/>
<rect class="matrix" x="158.0" y="255.0" width="34.5" height="28.3" fill="#4f46e5"/>
<rect class="matrix" x="192.0" y="255.0" width="34.5" height="28.3" fill="#0891b2"/>
<rect class="matrix" x="226.0" y="255.0" width="34.5" height="28.3" fill="#22c55e"/>
<rect class="matrix" x="90.0" y="282.8" width="34.5" height="28.3" fill="#2563eb"/>
<rect class="matrix" x="124.0" y="282.8" width="34.5" height="28.3" fill="#fde047"/>
<rect class="matrix" x="158.0" y="282.8" width="34.5" height="28.3" fill="#14b8a6"/>
<rect class="matrix" x="192.0" y="282.8" width="34.5" height="28.3" fill="#4f46e5"/>
<rect class="matrix" x="226.0" y="282.8" width="34.5" height="28.3" fill="#0891b2"/>
<rect class="matrix" x="90.0" y="310.6" width="34.5" height="28.3" fill="#0d9488"/>
<rect class="matrix" x="124.0" y="310.6" width="34.5" height="28.3" fill="#2563eb"/>
<rect class="matrix" x="158.0" y="310.6" width="34.5" height="28.3" fill="#fde047"/>
<rect class="matrix" x="192.0" y="310.6" width="34.5" height="28.3" fill="#14b8a6"/>
<rect class="matrix" x="226.0" y="310.6" width="34.5" height="28.3" fill="#4f46e5"/>
<rect class="matrix" x="90.0" y="338.3" width="34.5" height="28.3" fill="#7e22ce"/>
<rect class="matrix" x="124.0" y="338.3" width="34.5" height="28.3" fill="#0d9488"/>
<rect class="matrix" x="158.0" y="338.3" width="34.5" height="28.3" fill="#2563eb"/>
<rect class="matrix" x="192.0" y="338.3" width="34.5" height="28.3" fill="#fde047"/>
<rect class="matrix" x="226.0" y="338.3" width="34.5" height="28.3" fill="#14b8a6"/>
<rect class="matrix" x="90.0" y="366.1" width="34.5" height="28.3" fill="#22c55e"/>
<rect class="matrix" x="124.0" y="366.1" width="34.5" height="28.3" fill="#7e22ce"/>
<rect class="matrix" x="158.0" y="366.1" width="34.5" height="28.3" fill="#0d9488"/>
<rect class="matrix" x="192.0" y="366.1" width="34.5" height="28.3" fill="#2563eb"/>
<rect class="matrix" x="226.0" y="366.1" width="34.5" height="28.3" fill="#fde047"/>
<rect class="matrix" x="90.0" y="393.9" width="34.5" height="28.3" fill="#0891b2"/>
<rect class="matrix" x="124.0" y="393.9" width="34.5" height="28.3" fill="#22c55e"/>
<rect class="matrix" x="158.0" y="393.9" width="34.5" height="28.3" fill="#7e22ce"/>
<rect class="matrix" x="192.0" y="393.9" width="34.5" height="28.3" fill="#0d9488"/>
<rect class="matrix" x="226.0" y="393.9" width="34.5" height="28.3" fill="#2563eb"/>
<rect class="matrix" x="90.0" y="421.7" width="34.5" height="28.3" fill="#4f46e5"/>
<rect class="matrix" x="124.0" y="421.7" width="34.5" height="28.3" fill="#0891b2"/>
<rect class="matrix" x="158.0" y="421.7" width="34.5" height="28.3" fill="#22c55e"/>
<rect class="matrix" x="192.0" y="421.7" width="34.5" height="28.3" fill="#7e22ce"/>
<rect class="matrix" x="226.0" y="421.7" width="34.5" height="28.3" fill="#0d9488"/>
<rect class="matrix" x="90.0" y="449.4" width="34.5" height="28.3" fill="#14b8a6"/>
<rect class="matrix" x="124.0" y="449.4" width="34.5" height="28.3" fill="#4f46e5"/>
<rect class="matrix" x="158.0" y="449.4" width="34.5" height="28.3" fill="#0891b2"/>
<rect class="matrix" x="192.0" y="449.4" width="34.5" height="28.3" fill="#22c55e"/>
<rect class="matrix" x="226.0" y="449.4" width="34.5" height="28.3" fill="#7e22ce"/>
<rect class="matrix" x="90.0" y="477.2" width="34.5" height="28.3" fill="#fde047"/>
<rect class="matrix" x="124.0" y="477.2" width="34.5" height="28.3" fill="#14b8a6"/>
<rect class="matrix" x="158.0" y="477.2" width="34.5" height="28.3" fill="#4f46e5"/>
<rect class="matrix" x="192.0" y="477.2" width="34.5" height="28.3" fill="#0891b2"/>
<rect class="matrix" x="226.0" y="477.2" width="34.5" height="28.3" fill="#22c55e"/>
<text x="128" y="540" class="formula">X</text>
<path class="arrow" d="M260 380 H350"/>
<rect class="box" x="370" y="280" width="235" height="120" rx="18"/><text x="396" y="335" class="formula">block compress</text><text x="397" y="368" class="small">m tokens -> 1 KV</text>
<path class="arrow" d="M605 340 H700"/>
<rect x="720" y="265" width="230" height="118" fill="#071013" stroke="#17202a"/>
<rect class="matrix" x="720.0" y="265.0" width="33.4" height="24.1" fill="#0891b2"/>
<rect class="matrix" x="752.9" y="265.0" width="33.4" height="24.1" fill="#22c55e"/>
<rect class="matrix" x="785.7" y="265.0" width="33.4" height="24.1" fill="#7e22ce"/>
<rect class="matrix" x="818.6" y="265.0" width="33.4" height="24.1" fill="#0d9488"/>
<rect class="matrix" x="851.4" y="265.0" width="33.4" height="24.1" fill="#2563eb"/>
<rect class="matrix" x="884.3" y="265.0" width="33.4" height="24.1" fill="#fde047"/>
<rect class="matrix" x="917.1" y="265.0" width="33.4" height="24.1" fill="#14b8a6"/>
<rect class="matrix" x="720.0" y="288.6" width="33.4" height="24.1" fill="#4f46e5"/>
<rect class="matrix" x="752.9" y="288.6" width="33.4" height="24.1" fill="#0891b2"/>
<rect class="matrix" x="785.7" y="288.6" width="33.4" height="24.1" fill="#22c55e"/>
<rect class="matrix" x="818.6" y="288.6" width="33.4" height="24.1" fill="#7e22ce"/>
<rect class="matrix" x="851.4" y="288.6" width="33.4" height="24.1" fill="#0d9488"/>
<rect class="matrix" x="884.3" y="288.6" width="33.4" height="24.1" fill="#2563eb"/>
<rect class="matrix" x="917.1" y="288.6" width="33.4" height="24.1" fill="#fde047"/>
<rect class="matrix" x="720.0" y="312.2" width="33.4" height="24.1" fill="#14b8a6"/>
<rect class="matrix" x="752.9" y="312.2" width="33.4" height="24.1" fill="#4f46e5"/>
<rect class="matrix" x="785.7" y="312.2" width="33.4" height="24.1" fill="#0891b2"/>
<rect class="matrix" x="818.6" y="312.2" width="33.4" height="24.1" fill="#22c55e"/>
<rect class="matrix" x="851.4" y="312.2" width="33.4" height="24.1" fill="#7e22ce"/>
<rect class="matrix" x="884.3" y="312.2" width="33.4" height="24.1" fill="#0d9488"/>
<rect class="matrix" x="917.1" y="312.2" width="33.4" height="24.1" fill="#2563eb"/>
<rect class="matrix" x="720.0" y="335.8" width="33.4" height="24.1" fill="#fde047"/>
<rect class="matrix" x="752.9" y="335.8" width="33.4" height="24.1" fill="#14b8a6"/>
<rect class="matrix" x="785.7" y="335.8" width="33.4" height="24.1" fill="#4f46e5"/>
<rect class="matrix" x="818.6" y="335.8" width="33.4" height="24.1" fill="#0891b2"/>
<rect class="matrix" x="851.4" y="335.8" width="33.4" height="24.1" fill="#22c55e"/>
<rect class="matrix" x="884.3" y="335.8" width="33.4" height="24.1" fill="#7e22ce"/>
<rect class="matrix" x="917.1" y="335.8" width="33.4" height="24.1" fill="#0d9488"/>
<rect class="matrix" x="720.0" y="359.4" width="33.4" height="24.1" fill="#2563eb"/>
<rect class="matrix" x="752.9" y="359.4" width="33.4" height="24.1" fill="#fde047"/>
<rect class="matrix" x="785.7" y="359.4" width="33.4" height="24.1" fill="#14b8a6"/>
<rect class="matrix" x="818.6" y="359.4" width="33.4" height="24.1" fill="#4f46e5"/>
<rect class="matrix" x="851.4" y="359.4" width="33.4" height="24.1" fill="#0891b2"/>
<rect class="matrix" x="884.3" y="359.4" width="33.4" height="24.1" fill="#22c55e"/>
<rect class="matrix" x="917.1" y="359.4" width="33.4" height="24.1" fill="#7e22ce"/>
<text x="730" y="420" class="muted">compressed KV entries</text>
<path class="arrow" d="M950 325 H1045"/>
<rect x="1060" y="230" width="230" height="230" fill="#071013" stroke="#17202a"/>
<rect class="matrix" x="1060.0" y="230.0" width="26.1" height="26.1" fill="#0891b2"/>
<rect class="matrix" x="1085.6" y="230.0" width="26.1" height="26.1" fill="#4c056d"/>
<rect class="matrix" x="1111.1" y="230.0" width="26.1" height="26.1" fill="#4c056d"/>
<rect class="matrix" x="1136.7" y="230.0" width="26.1" height="26.1" fill="#4c056d"/>
<rect class="matrix" x="1162.2" y="230.0" width="26.1" height="26.1" fill="#4c056d"/>
<rect class="matrix" x="1187.8" y="230.0" width="26.1" height="26.1" fill="#4c056d"/>
<rect class="matrix" x="1213.3" y="230.0" width="26.1" height="26.1" fill="#4c056d"/>
<rect class="matrix" x="1238.9" y="230.0" width="26.1" height="26.1" fill="#4c056d"/>
<rect class="matrix" x="1264.4" y="230.0" width="26.1" height="26.1" fill="#4c056d"/>
<rect class="matrix" x="1060.0" y="255.6" width="26.1" height="26.1" fill="#4f46e5"/>
<rect class="matrix" x="1085.6" y="255.6" width="26.1" height="26.1" fill="#0891b2"/>
<rect class="matrix" x="1111.1" y="255.6" width="26.1" height="26.1" fill="#4c056d"/>
<rect class="matrix" x="1136.7" y="255.6" width="26.1" height="26.1" fill="#4c056d"/>
<rect class="matrix" x="1162.2" y="255.6" width="26.1" height="26.1" fill="#4c056d"/>
<rect class="matrix" x="1187.8" y="255.6" width="26.1" height="26.1" fill="#4c056d"/>
<rect class="matrix" x="1213.3" y="255.6" width="26.1" height="26.1" fill="#4c056d"/>
<rect class="matrix" x="1238.9" y="255.6" width="26.1" height="26.1" fill="#4c056d"/>
<rect class="matrix" x="1264.4" y="255.6" width="26.1" height="26.1" fill="#4c056d"/>
<rect class="matrix" x="1060.0" y="281.1" width="26.1" height="26.1" fill="#14b8a6"/>
<rect class="matrix" x="1085.6" y="281.1" width="26.1" height="26.1" fill="#4f46e5"/>
<rect class="matrix" x="1111.1" y="281.1" width="26.1" height="26.1" fill="#0891b2"/>
<rect class="matrix" x="1136.7" y="281.1" width="26.1" height="26.1" fill="#4c056d"/>
<rect class="matrix" x="1162.2" y="281.1" width="26.1" height="26.1" fill="#4c056d"/>
<rect class="matrix" x="1187.8" y="281.1" width="26.1" height="26.1" fill="#4c056d"/>
<rect class="matrix" x="1213.3" y="281.1" width="26.1" height="26.1" fill="#4c056d"/>
<rect class="matrix" x="1238.9" y="281.1" width="26.1" height="26.1" fill="#4c056d"/>
<rect class="matrix" x="1264.4" y="281.1" width="26.1" height="26.1" fill="#4c056d"/>
<rect class="matrix" x="1060.0" y="306.7" width="26.1" height="26.1" fill="#fde047"/>
<rect class="matrix" x="1085.6" y="306.7" width="26.1" height="26.1" fill="#14b8a6"/>
<rect class="matrix" x="1111.1" y="306.7" width="26.1" height="26.1" fill="#4f46e5"/>
<rect class="matrix" x="1136.7" y="306.7" width="26.1" height="26.1" fill="#0891b2"/>
<rect class="matrix" x="1162.2" y="306.7" width="26.1" height="26.1" fill="#4c056d"/>
<rect class="matrix" x="1187.8" y="306.7" width="26.1" height="26.1" fill="#4c056d"/>
<rect class="matrix" x="1213.3" y="306.7" width="26.1" height="26.1" fill="#4c056d"/>
<rect class="matrix" x="1238.9" y="306.7" width="26.1" height="26.1" fill="#4c056d"/>
<rect class="matrix" x="1264.4" y="306.7" width="26.1" height="26.1" fill="#4c056d"/>
<rect class="matrix" x="1060.0" y="332.2" width="26.1" height="26.1" fill="#2563eb"/>
<rect class="matrix" x="1085.6" y="332.2" width="26.1" height="26.1" fill="#fde047"/>
<rect class="matrix" x="1111.1" y="332.2" width="26.1" height="26.1" fill="#14b8a6"/>
<rect class="matrix" x="1136.7" y="332.2" width="26.1" height="26.1" fill="#4f46e5"/>
<rect class="matrix" x="1162.2" y="332.2" width="26.1" height="26.1" fill="#0891b2"/>
<rect class="matrix" x="1187.8" y="332.2" width="26.1" height="26.1" fill="#4c056d"/>
<rect class="matrix" x="1213.3" y="332.2" width="26.1" height="26.1" fill="#4c056d"/>
<rect class="matrix" x="1238.9" y="332.2" width="26.1" height="26.1" fill="#4c056d"/>
<rect class="matrix" x="1264.4" y="332.2" width="26.1" height="26.1" fill="#4c056d"/>
<rect class="matrix" x="1060.0" y="357.8" width="26.1" height="26.1" fill="#0d9488"/>
<rect class="matrix" x="1085.6" y="357.8" width="26.1" height="26.1" fill="#2563eb"/>
<rect class="matrix" x="1111.1" y="357.8" width="26.1" height="26.1" fill="#fde047"/>
<rect class="matrix" x="1136.7" y="357.8" width="26.1" height="26.1" fill="#14b8a6"/>
<rect class="matrix" x="1162.2" y="357.8" width="26.1" height="26.1" fill="#4f46e5"/>
<rect class="matrix" x="1187.8" y="357.8" width="26.1" height="26.1" fill="#0891b2"/>
<rect class="matrix" x="1213.3" y="357.8" width="26.1" height="26.1" fill="#4c056d"/>
<rect class="matrix" x="1238.9" y="357.8" width="26.1" height="26.1" fill="#4c056d"/>
<rect class="matrix" x="1264.4" y="357.8" width="26.1" height="26.1" fill="#4c056d"/>
<rect class="matrix" x="1060.0" y="383.3" width="26.1" height="26.1" fill="#7e22ce"/>
<rect class="matrix" x="1085.6" y="383.3" width="26.1" height="26.1" fill="#0d9488"/>
<rect class="matrix" x="1111.1" y="383.3" width="26.1" height="26.1" fill="#2563eb"/>
<rect class="matrix" x="1136.7" y="383.3" width="26.1" height="26.1" fill="#fde047"/>
<rect class="matrix" x="1162.2" y="383.3" width="26.1" height="26.1" fill="#14b8a6"/>
<rect class="matrix" x="1187.8" y="383.3" width="26.1" height="26.1" fill="#4f46e5"/>
<rect class="matrix" x="1213.3" y="383.3" width="26.1" height="26.1" fill="#0891b2"/>
<rect class="matrix" x="1238.9" y="383.3" width="26.1" height="26.1" fill="#4c056d"/>
<rect class="matrix" x="1264.4" y="383.3" width="26.1" height="26.1" fill="#4c056d"/>
<rect class="matrix" x="1060.0" y="408.9" width="26.1" height="26.1" fill="#22c55e"/>
<rect class="matrix" x="1085.6" y="408.9" width="26.1" height="26.1" fill="#7e22ce"/>
<rect class="matrix" x="1111.1" y="408.9" width="26.1" height="26.1" fill="#0d9488"/>
<rect class="matrix" x="1136.7" y="408.9" width="26.1" height="26.1" fill="#2563eb"/>
<rect class="matrix" x="1162.2" y="408.9" width="26.1" height="26.1" fill="#fde047"/>
<rect class="matrix" x="1187.8" y="408.9" width="26.1" height="26.1" fill="#14b8a6"/>
<rect class="matrix" x="1213.3" y="408.9" width="26.1" height="26.1" fill="#4f46e5"/>
<rect class="matrix" x="1238.9" y="408.9" width="26.1" height="26.1" fill="#0891b2"/>
<rect class="matrix" x="1264.4" y="408.9" width="26.1" height="26.1" fill="#4c056d"/>
<rect class="matrix" x="1060.0" y="434.4" width="26.1" height="26.1" fill="#0891b2"/>
<rect class="matrix" x="1085.6" y="434.4" width="26.1" height="26.1" fill="#22c55e"/>
<rect class="matrix" x="1111.1" y="434.4" width="26.1" height="26.1" fill="#7e22ce"/>
<rect class="matrix" x="1136.7" y="434.4" width="26.1" height="26.1" fill="#0d9488"/>
<rect class="matrix" x="1162.2" y="434.4" width="26.1" height="26.1" fill="#2563eb"/>
<rect class="matrix" x="1187.8" y="434.4" width="26.1" height="26.1" fill="#fde047"/>
<rect class="matrix" x="1213.3" y="434.4" width="26.1" height="26.1" fill="#14b8a6"/>
<rect class="matrix" x="1238.9" y="434.4" width="26.1" height="26.1" fill="#4f46e5"/>
<rect class="matrix" x="1264.4" y="434.4" width="26.1" height="26.1" fill="#0891b2"/>
<text x="1035" y="188" class="formula">shared-KV MQA over blocks</text>
<path class="arrow" d="M1175 482 V620 H760"/>
<rect x="780" y="585" width="390" height="118" fill="#071013" stroke="#17202a"/>
<rect class="matrix" x="780.0" y="585.0" width="24.9" height="24.1" fill="#0891b2"/>
<rect class="matrix" x="804.4" y="585.0" width="24.9" height="24.1" fill="#22c55e"/>
<rect class="matrix" x="828.8" y="585.0" width="24.9" height="24.1" fill="#7e22ce"/>
<rect class="matrix" x="853.1" y="585.0" width="24.9" height="24.1" fill="#0d9488"/>
<rect class="matrix" x="877.5" y="585.0" width="24.9" height="24.1" fill="#2563eb"/>
<rect class="matrix" x="901.9" y="585.0" width="24.9" height="24.1" fill="#fde047"/>
<rect class="matrix" x="926.2" y="585.0" width="24.9" height="24.1" fill="#14b8a6"/>
<rect class="matrix" x="950.6" y="585.0" width="24.9" height="24.1" fill="#4f46e5"/>
<rect class="matrix" x="975.0" y="585.0" width="24.9" height="24.1" fill="#0891b2"/>
<rect class="matrix" x="999.4" y="585.0" width="24.9" height="24.1" fill="#22c55e"/>
<rect class="matrix" x="1023.8" y="585.0" width="24.9" height="24.1" fill="#7e22ce"/>
<rect class="matrix" x="1048.1" y="585.0" width="24.9" height="24.1" fill="#0d9488"/>
<rect class="matrix" x="1072.5" y="585.0" width="24.9" height="24.1" fill="#2563eb"/>
<rect class="matrix" x="1096.9" y="585.0" width="24.9" height="24.1" fill="#fde047"/>
<rect class="matrix" x="1121.2" y="585.0" width="24.9" height="24.1" fill="#14b8a6"/>
<rect class="matrix" x="1145.6" y="585.0" width="24.9" height="24.1" fill="#4f46e5"/>
<rect class="matrix" x="780.0" y="608.6" width="24.9" height="24.1" fill="#4f46e5"/>
<rect class="matrix" x="804.4" y="608.6" width="24.9" height="24.1" fill="#0891b2"/>
<rect class="matrix" x="828.8" y="608.6" width="24.9" height="24.1" fill="#22c55e"/>
<rect class="matrix" x="853.1" y="608.6" width="24.9" height="24.1" fill="#7e22ce"/>
<rect class="matrix" x="877.5" y="608.6" width="24.9" height="24.1" fill="#0d9488"/>
<rect class="matrix" x="901.9" y="608.6" width="24.9" height="24.1" fill="#2563eb"/>
<rect class="matrix" x="926.2" y="608.6" width="24.9" height="24.1" fill="#fde047"/>
<rect class="matrix" x="950.6" y="608.6" width="24.9" height="24.1" fill="#14b8a6"/>
<rect class="matrix" x="975.0" y="608.6" width="24.9" height="24.1" fill="#4f46e5"/>
<rect class="matrix" x="999.4" y="608.6" width="24.9" height="24.1" fill="#0891b2"/>
<rect class="matrix" x="1023.8" y="608.6" width="24.9" height="24.1" fill="#22c55e"/>
<rect class="matrix" x="1048.1" y="608.6" width="24.9" height="24.1" fill="#7e22ce"/>
<rect class="matrix" x="1072.5" y="608.6" width="24.9" height="24.1" fill="#0d9488"/>
<rect class="matrix" x="1096.9" y="608.6" width="24.9" height="24.1" fill="#2563eb"/>
<rect class="matrix" x="1121.2" y="608.6" width="24.9" height="24.1" fill="#fde047"/>
<rect class="matrix" x="1145.6" y="608.6" width="24.9" height="24.1" fill="#14b8a6"/>
<rect class="matrix" x="780.0" y="632.2" width="24.9" height="24.1" fill="#14b8a6"/>
<rect class="matrix" x="804.4" y="632.2" width="24.9" height="24.1" fill="#4f46e5"/>
<rect class="matrix" x="828.8" y="632.2" width="24.9" height="24.1" fill="#0891b2"/>
<rect class="matrix" x="853.1" y="632.2" width="24.9" height="24.1" fill="#22c55e"/>
<rect class="matrix" x="877.5" y="632.2" width="24.9" height="24.1" fill="#7e22ce"/>
<rect class="matrix" x="901.9" y="632.2" width="24.9" height="24.1" fill="#0d9488"/>
<rect class="matrix" x="926.2" y="632.2" width="24.9" height="24.1" fill="#2563eb"/>
<rect class="matrix" x="950.6" y="632.2" width="24.9" height="24.1" fill="#fde047"/>
<rect class="matrix" x="975.0" y="632.2" width="24.9" height="24.1" fill="#14b8a6"/>
<rect class="matrix" x="999.4" y="632.2" width="24.9" height="24.1" fill="#4f46e5"/>
<rect class="matrix" x="1023.8" y="632.2" width="24.9" height="24.1" fill="#0891b2"/>
<rect class="matrix" x="1048.1" y="632.2" width="24.9" height="24.1" fill="#22c55e"/>
<rect class="matrix" x="1072.5" y="632.2" width="24.9" height="24.1" fill="#7e22ce"/>
<rect class="matrix" x="1096.9" y="632.2" width="24.9" height="24.1" fill="#0d9488"/>
<rect class="matrix" x="1121.2" y="632.2" width="24.9" height="24.1" fill="#2563eb"/>
<rect class="matrix" x="1145.6" y="632.2" width="24.9" height="24.1" fill="#fde047"/>
<rect class="matrix" x="780.0" y="655.8" width="24.9" height="24.1" fill="#fde047"/>
<rect class="matrix" x="804.4" y="655.8" width="24.9" height="24.1" fill="#14b8a6"/>
<rect class="matrix" x="828.8" y="655.8" width="24.9" height="24.1" fill="#4f46e5"/>
<rect class="matrix" x="853.1" y="655.8" width="24.9" height="24.1" fill="#0891b2"/>
<rect class="matrix" x="877.5" y="655.8" width="24.9" height="24.1" fill="#22c55e"/>
<rect class="matrix" x="901.9" y="655.8" width="24.9" height="24.1" fill="#7e22ce"/>
<rect class="matrix" x="926.2" y="655.8" width="24.9" height="24.1" fill="#0d9488"/>
<rect class="matrix" x="950.6" y="655.8" width="24.9" height="24.1" fill="#2563eb"/>
<rect class="matrix" x="975.0" y="655.8" width="24.9" height="24.1" fill="#fde047"/>
<rect class="matrix" x="999.4" y="655.8" width="24.9" height="24.1" fill="#14b8a6"/>
<rect class="matrix" x="1023.8" y="655.8" width="24.9" height="24.1" fill="#4f46e5"/>
<rect class="matrix" x="1048.1" y="655.8" width="24.9" height="24.1" fill="#0891b2"/>
<rect class="matrix" x="1072.5" y="655.8" width="24.9" height="24.1" fill="#22c55e"/>
<rect class="matrix" x="1096.9" y="655.8" width="24.9" height="24.1" fill="#7e22ce"/>
<rect class="matrix" x="1121.2" y="655.8" width="24.9" height="24.1" fill="#0d9488"/>
<rect class="matrix" x="1145.6" y="655.8" width="24.9" height="24.1" fill="#2563eb"/>
<rect class="matrix" x="780.0" y="679.4" width="24.9" height="24.1" fill="#2563eb"/>
<rect class="matrix" x="804.4" y="679.4" width="24.9" height="24.1" fill="#fde047"/>
<rect class="matrix" x="828.8" y="679.4" width="24.9" height="24.1" fill="#14b8a6"/>
<rect class="matrix" x="853.1" y="679.4" width="24.9" height="24.1" fill="#4f46e5"/>
<rect class="matrix" x="877.5" y="679.4" width="24.9" height="24.1" fill="#0891b2"/>
<rect class="matrix" x="901.9" y="679.4" width="24.9" height="24.1" fill="#22c55e"/>
<rect class="matrix" x="926.2" y="679.4" width="24.9" height="24.1" fill="#7e22ce"/>
<rect class="matrix" x="950.6" y="679.4" width="24.9" height="24.1" fill="#0d9488"/>
<rect class="matrix" x="975.0" y="679.4" width="24.9" height="24.1" fill="#2563eb"/>
<rect class="matrix" x="999.4" y="679.4" width="24.9" height="24.1" fill="#fde047"/>
<rect class="matrix" x="1023.8" y="679.4" width="24.9" height="24.1" fill="#14b8a6"/>
<rect class="matrix" x="1048.1" y="679.4" width="24.9" height="24.1" fill="#4f46e5"/>
<rect class="matrix" x="1072.5" y="679.4" width="24.9" height="24.1" fill="#0891b2"/>
<rect class="matrix" x="1096.9" y="679.4" width="24.9" height="24.1" fill="#22c55e"/>
<rect class="matrix" x="1121.2" y="679.4" width="24.9" height="24.1" fill="#7e22ce"/>
<rect class="matrix" x="1145.6" y="679.4" width="24.9" height="24.1" fill="#0d9488"/>
<text x="865" y="748" class="muted">grouped output projection</text>
<path class="arrow" d="M1180 645 H1320"/>
</svg>
