<svg xmlns="http://www.w3.org/2000/svg" width="1600" height="900" viewBox="0 0 1600 900" role="img" aria-label="Sliding-window attention architecture diagram">
<defs>
  <marker id="arrow" markerWidth="13" markerHeight="13" refX="11" refY="6.5" orient="auto">
    <path d="M2 2 L11 6.5 L2 11" fill="none" stroke="#a7a18b" stroke-width="3" stroke-linecap="round" stroke-linejoin="round"/>
  </marker>
  <linearGradient id="heat" x1="0" x2="1" y1="0" y2="1">
    <stop offset="0" stop-color="#0ea5a8"/>
    <stop offset="0.45" stop-color="#14b8a6"/>
    <stop offset="0.7" stop-color="#1d4ed8"/>
    <stop offset="1" stop-color="#7e22ce"/>
  </linearGradient>
  <linearGradient id="hot" x1="0" x2="1" y1="0" y2="1">
    <stop offset="0" stop-color="#0f766e"/>
    <stop offset="0.45" stop-color="#22c55e"/>
    <stop offset="0.72" stop-color="#fde047"/>
    <stop offset="1" stop-color="#7e22ce"/>
  </linearGradient>
  <style>
  .bg { fill: #050608; }
  .muted { fill: #a7a18b; font: 600 18px Inter, ui-sans-serif, system-ui, sans-serif; }
  .small { fill: #a7a18b; font: 500 14px Inter, ui-sans-serif, system-ui, sans-serif; }
  .title { fill: #f7f3df; font: 700 34px Inter, ui-sans-serif, system-ui, sans-serif; }
  .subtitle { fill: #b9b095; font: 500 18px Inter, ui-sans-serif, system-ui, sans-serif; }
  .formula { fill: #f7f3df; font: italic 24px Georgia, serif; }
  .box { fill: #101214; stroke: #a7a18b; stroke-width: 3; }
  .matrix { stroke: #0b1720; stroke-width: 1; }
  .arrow { fill: none; stroke: #a7a18b; stroke-width: 4; stroke-linecap: round; stroke-linejoin: round; marker-end: url(#arrow); }
  .line { fill: none; stroke: #a7a18b; stroke-width: 3; stroke-linecap: round; stroke-linejoin: round; }
</style>
</defs>
<rect class="bg" width="1600" height="900"/>
<text x="80" y="82" class="title">Sliding-window attention</text>
<text x="82" y="118" class="subtitle">dense heads, but each query only sees a fixed local band</text>
<text x="82" y="850" class="small">The attention mask is banded, so far-away tokens are invisible during the attention score step.</text>
<rect x="90" y="255" width="170" height="250" fill="#071013" stroke="#17202a"/>
<rect class="matrix" x="90.0" y="255.0" width="34.5" height="28.3" fill="#fde047"/>
<rect class="matrix" x="124.0" y="255.0" width="34.5" height="28.3" fill="#14b8a6"/>
<rect class="matrix" x="158.0" y="255.0" width="34.5" height="28.3" fill="#4f46e5"/>
<rect class="matrix" x="192.0" y="255.0" width="34.5" height="28.3" fill="#0891b2"/>
<rect class="matrix" x="226.0" y="255.0" width="34.5" height="28.3" fill="#22c55e"/>
<rect class="matrix" x="90.0" y="282.8" width="34.5" height="28.3" fill="#2563eb"/>
<rect class="matrix" x="124.0" y="282.8" width="34.5" height="28.3" fill="#fde047"/>
<rect class="matrix" x="158.0" y="282.8" width="34.5" height="28.3" fill="#14b8a6"/>
<rect class="matrix" x="192.0" y="282.8" width="34.5" height="28.3" fill="#4f46e5"/>
<rect class="matrix" x="226.0" y="282.8" width="34.5" height="28.3" fill="#0891b2"/>
<rect class="matrix" x="90.0" y="310.6" width="34.5" height="28.3" fill="#0d9488"/>
<rect class="matrix" x="124.0" y="310.6" width="34.5" height="28.3" fill="#2563eb"/>
<rect class="matrix" x="158.0" y="310.6" width="34.5" height="28.3" fill="#fde047"/>
<rect class="matrix" x="192.0" y="310.6" width="34.5" height="28.3" fill="#14b8a6"/>
<rect class="matrix" x="226.0" y="310.6" width="34.5" height="28.3" fill="#4f46e5"/>
<rect class="matrix" x="90.0" y="338.3" width="34.5" height="28.3" fill="#7e22ce"/>
<rect class="matrix" x="124.0" y="338.3" width="34.5" height="28.3" fill="#0d9488"/>
<rect class="matrix" x="158.0" y="338.3" width="34.5" height="28.3" fill="#2563eb"/>
<rect class="matrix" x="192.0" y="338.3" width="34.5" height="28.3" fill="#fde047"/>
<rect class="matrix" x="226.0" y="338.3" width="34.5" height="28.3" fill="#14b8a6"/>
<rect class="matrix" x="90.0" y="366.1" width="34.5" height="28.3" fill="#22c55e"/>
<rect class="matrix" x="124.0" y="366.1" width="34.5" height="28.3" fill="#7e22ce"/>
<rect class="matrix" x="158.0" y="366.1" width="34.5" height="28.3" fill="#0d9488"/>
<rect class="matrix" x="192.0" y="366.1" width="34.5" height="28.3" fill="#2563eb"/>
<rect class="matrix" x="226.0" y="366.1" width="34.5" height="28.3" fill="#fde047"/>
<rect class="matrix" x="90.0" y="393.9" width="34.5" height="28.3" fill="#0891b2"/>
<rect class="matrix" x="124.0" y="393.9" width="34.5" height="28.3" fill="#22c55e"/>
<rect class="matrix" x="158.0" y="393.9" width="34.5" height="28.3" fill="#7e22ce"/>
<rect class="matrix" x="192.0" y="393.9" width="34.5" height="28.3" fill="#0d9488"/>
<rect class="matrix" x="226.0" y="393.9" width="34.5" height="28.3" fill="#2563eb"/>
<rect class="matrix" x="90.0" y="421.7" width="34.5" height="28.3" fill="#4f46e5"/>
<rect class="matrix" x="124.0" y="421.7" width="34.5" height="28.3" fill="#0891b2"/>
<rect class="matrix" x="158.0" y="421.7" width="34.5" height="28.3" fill="#22c55e"/>
<rect class="matrix" x="192.0" y="421.7" width="34.5" height="28.3" fill="#7e22ce"/>
<rect class="matrix" x="226.0" y="421.7" width="34.5" height="28.3" fill="#0d9488"/>
<rect class="matrix" x="90.0" y="449.4" width="34.5" height="28.3" fill="#14b8a6"/>
<rect class="matrix" x="124.0" y="449.4" width="34.5" height="28.3" fill="#4f46e5"/>
<rect class="matrix" x="158.0" y="449.4" width="34.5" height="28.3" fill="#0891b2"/>
<rect class="matrix" x="192.0" y="449.4" width="34.5" height="28.3" fill="#22c55e"/>
<rect class="matrix" x="226.0" y="449.4" width="34.5" height="28.3" fill="#7e22ce"/>
<rect class="matrix" x="90.0" y="477.2" width="34.5" height="28.3" fill="#fde047"/>
<rect class="matrix" x="124.0" y="477.2" width="34.5" height="28.3" fill="#14b8a6"/>
<rect class="matrix" x="158.0" y="477.2" width="34.5" height="28.3" fill="#4f46e5"/>
<rect class="matrix" x="192.0" y="477.2" width="34.5" height="28.3" fill="#0891b2"/>
<rect class="matrix" x="226.0" y="477.2" width="34.5" height="28.3" fill="#22c55e"/>
<rect class="box" x="330" y="205" width="132" height="52" rx="12"/><text x="348" y="239" class="formula">W_Q</text>
<rect class="box" x="330" y="382" width="132" height="52" rx="12"/><text x="348" y="416" class="formula">W_K</text>
<rect class="box" x="330" y="558" width="132" height="52" rx="12"/><text x="348" y="592" class="formula">W_V</text>
<path class="arrow" d="M260 380 H320"/><path class="arrow" d="M388 231 H500"/><path class="arrow" d="M388 408 H500"/><path class="arrow" d="M388 584 H500"/>
<rect x="515" y="172" width="390" height="118" fill="#071013" stroke="#17202a"/>
<rect class="matrix" x="515.0" y="172.0" width="24.9" height="24.1" fill="#0891b2"/>
<rect class="matrix" x="539.4" y="172.0" width="24.9" height="24.1" fill="#22c55e"/>
<rect class="matrix" x="563.8" y="172.0" width="24.9" height="24.1" fill="#7e22ce"/>
<rect class="matrix" x="588.1" y="172.0" width="24.9" height="24.1" fill="#0d9488"/>
<rect class="matrix" x="612.5" y="172.0" width="24.9" height="24.1" fill="#2563eb"/>
<rect class="matrix" x="636.9" y="172.0" width="24.9" height="24.1" fill="#fde047"/>
<rect class="matrix" x="661.2" y="172.0" width="24.9" height="24.1" fill="#14b8a6"/>
<rect class="matrix" x="685.6" y="172.0" width="24.9" height="24.1" fill="#4f46e5"/>
<rect class="matrix" x="710.0" y="172.0" width="24.9" height="24.1" fill="#0891b2"/>
<rect class="matrix" x="734.4" y="172.0" width="24.9" height="24.1" fill="#22c55e"/>
<rect class="matrix" x="758.8" y="172.0" width="24.9" height="24.1" fill="#7e22ce"/>
<rect class="matrix" x="783.1" y="172.0" width="24.9" height="24.1" fill="#0d9488"/>
<rect class="matrix" x="807.5" y="172.0" width="24.9" height="24.1" fill="#2563eb"/>
<rect class="matrix" x="831.9" y="172.0" width="24.9" height="24.1" fill="#fde047"/>
<rect class="matrix" x="856.2" y="172.0" width="24.9" height="24.1" fill="#14b8a6"/>
<rect class="matrix" x="880.6" y="172.0" width="24.9" height="24.1" fill="#4f46e5"/>
<rect class="matrix" x="515.0" y="195.6" width="24.9" height="24.1" fill="#4f46e5"/>
<rect class="matrix" x="539.4" y="195.6" width="24.9" height="24.1" fill="#0891b2"/>
<rect class="matrix" x="563.8" y="195.6" width="24.9" height="24.1" fill="#22c55e"/>
<rect class="matrix" x="588.1" y="195.6" width="24.9" height="24.1" fill="#7e22ce"/>
<rect class="matrix" x="612.5" y="195.6" width="24.9" height="24.1" fill="#0d9488"/>
<rect class="matrix" x="636.9" y="195.6" width="24.9" height="24.1" fill="#2563eb"/>
<rect class="matrix" x="661.2" y="195.6" width="24.9" height="24.1" fill="#fde047"/>
<rect class="matrix" x="685.6" y="195.6" width="24.9" height="24.1" fill="#14b8a6"/>
<rect class="matrix" x="710.0" y="195.6" width="24.9" height="24.1" fill="#4f46e5"/>
<rect class="matrix" x="734.4" y="195.6" width="24.9" height="24.1" fill="#0891b2"/>
<rect class="matrix" x="758.8" y="195.6" width="24.9" height="24.1" fill="#22c55e"/>
<rect class="matrix" x="783.1" y="195.6" width="24.9" height="24.1" fill="#7e22ce"/>
<rect class="matrix" x="807.5" y="195.6" width="24.9" height="24.1" fill="#0d9488"/>
<rect class="matrix" x="831.9" y="195.6" width="24.9" height="24.1" fill="#2563eb"/>
<rect class="matrix" x="856.2" y="195.6" width="24.9" height="24.1" fill="#fde047"/>
<rect class="matrix" x="880.6" y="195.6" width="24.9" height="24.1" fill="#14b8a6"/>
<rect class="matrix" x="515.0" y="219.2" width="24.9" height="24.1" fill="#14b8a6"/>
<rect class="matrix" x="539.4" y="219.2" width="24.9" height="24.1" fill="#4f46e5"/>
<rect class="matrix" x="563.8" y="219.2" width="24.9" height="24.1" fill="#0891b2"/>
<rect class="matrix" x="588.1" y="219.2" width="24.9" height="24.1" fill="#22c55e"/>
<rect class="matrix" x="612.5" y="219.2" width="24.9" height="24.1" fill="#7e22ce"/>
<rect class="matrix" x="636.9" y="219.2" width="24.9" height="24.1" fill="#0d9488"/>
<rect class="matrix" x="661.2" y="219.2" width="24.9" height="24.1" fill="#2563eb"/>
<rect class="matrix" x="685.6" y="219.2" width="24.9" height="24.1" fill="#fde047"/>
<rect class="matrix" x="710.0" y="219.2" width="24.9" height="24.1" fill="#14b8a6"/>
<rect class="matrix" x="734.4" y="219.2" width="24.9" height="24.1" fill="#4f46e5"/>
<rect class="matrix" x="758.8" y="219.2" width="24.9" height="24.1" fill="#0891b2"/>
<rect class="matrix" x="783.1" y="219.2" width="24.9" height="24.1" fill="#22c55e"/>
<rect class="matrix" x="807.5" y="219.2" width="24.9" height="24.1" fill="#7e22ce"/>
<rect class="matrix" x="831.9" y="219.2" width="24.9" height="24.1" fill="#0d9488"/>
<rect class="matrix" x="856.2" y="219.2" width="24.9" height="24.1" fill="#2563eb"/>
<rect class="matrix" x="880.6" y="219.2" width="24.9" height="24.1" fill="#fde047"/>
<rect class="matrix" x="515.0" y="242.8" width="24.9" height="24.1" fill="#fde047"/>
<rect class="matrix" x="539.4" y="242.8" width="24.9" height="24.1" fill="#14b8a6"/>
<rect class="matrix" x="563.8" y="242.8" width="24.9" height="24.1" fill="#4f46e5"/>
<rect class="matrix" x="588.1" y="242.8" width="24.9" height="24.1" fill="#0891b2"/>
<rect class="matrix" x="612.5" y="242.8" width="24.9" height="24.1" fill="#22c55e"/>
<rect class="matrix" x="636.9" y="242.8" width="24.9" height="24.1" fill="#7e22ce"/>
<rect class="matrix" x="661.2" y="242.8" width="24.9" height="24.1" fill="#0d9488"/>
<rect class="matrix" x="685.6" y="242.8" width="24.9" height="24.1" fill="#2563eb"/>
<rect class="matrix" x="710.0" y="242.8" width="24.9" height="24.1" fill="#fde047"/>
<rect class="matrix" x="734.4" y="242.8" width="24.9" height="24.1" fill="#14b8a6"/>
<rect class="matrix" x="758.8" y="242.8" width="24.9" height="24.1" fill="#4f46e5"/>
<rect class="matrix" x="783.1" y="242.8" width="24.9" height="24.1" fill="#0891b2"/>
<rect class="matrix" x="807.5" y="242.8" width="24.9" height="24.1" fill="#22c55e"/>
<rect class="matrix" x="831.9" y="242.8" width="24.9" height="24.1" fill="#7e22ce"/>
<rect class="matrix" x="856.2" y="242.8" width="24.9" height="24.1" fill="#0d9488"/>
<rect class="matrix" x="880.6" y="242.8" width="24.9" height="24.1" fill="#2563eb"/>
<rect class="matrix" x="515.0" y="266.4" width="24.9" height="24.1" fill="#2563eb"/>
<rect class="matrix" x="539.4" y="266.4" width="24.9" height="24.1" fill="#fde047"/>
<rect class="matrix" x="563.8" y="266.4" width="24.9" height="24.1" fill="#14b8a6"/>
<rect class="matrix" x="588.1" y="266.4" width="24.9" height="24.1" fill="#4f46e5"/>
<rect class="matrix" x="612.5" y="266.4" width="24.9" height="24.1" fill="#0891b2"/>
<rect class="matrix" x="636.9" y="266.4" width="24.9" height="24.1" fill="#22c55e"/>
<rect class="matrix" x="661.2" y="266.4" width="24.9" height="24.1" fill="#7e22ce"/>
<rect class="matrix" x="685.6" y="266.4" width="24.9" height="24.1" fill="#0d9488"/>
<rect class="matrix" x="710.0" y="266.4" width="24.9" height="24.1" fill="#2563eb"/>
<rect class="matrix" x="734.4" y="266.4" width="24.9" height="24.1" fill="#fde047"/>
<rect class="matrix" x="758.8" y="266.4" width="24.9" height="24.1" fill="#14b8a6"/>
<rect class="matrix" x="783.1" y="266.4" width="24.9" height="24.1" fill="#4f46e5"/>
<rect class="matrix" x="807.5" y="266.4" width="24.9" height="24.1" fill="#0891b2"/>
<rect class="matrix" x="831.9" y="266.4" width="24.9" height="24.1" fill="#22c55e"/>
<rect class="matrix" x="856.2" y="266.4" width="24.9" height="24.1" fill="#7e22ce"/>
<rect class="matrix" x="880.6" y="266.4" width="24.9" height="24.1" fill="#0d9488"/>
<rect x="515" y="350" width="390" height="118" fill="#071013" stroke="#17202a"/>
<rect class="matrix" x="515.0" y="350.0" width="24.9" height="24.1" fill="#0891b2"/>
<rect class="matrix" x="539.4" y="350.0" width="24.9" height="24.1" fill="#22c55e"/>
<rect class="matrix" x="563.8" y="350.0" width="24.9" height="24.1" fill="#7e22ce"/>
<rect class="matrix" x="588.1" y="350.0" width="24.9" height="24.1" fill="#0d9488"/>
<rect class="matrix" x="612.5" y="350.0" width="24.9" height="24.1" fill="#2563eb"/>
<rect class="matrix" x="636.9" y="350.0" width="24.9" height="24.1" fill="#fde047"/>
<rect class="matrix" x="661.2" y="350.0" width="24.9" height="24.1" fill="#14b8a6"/>
<rect class="matrix" x="685.6" y="350.0" width="24.9" height="24.1" fill="#4f46e5"/>
<rect class="matrix" x="710.0" y="350.0" width="24.9" height="24.1" fill="#0891b2"/>
<rect class="matrix" x="734.4" y="350.0" width="24.9" height="24.1" fill="#22c55e"/>
<rect class="matrix" x="758.8" y="350.0" width="24.9" height="24.1" fill="#7e22ce"/>
<rect class="matrix" x="783.1" y="350.0" width="24.9" height="24.1" fill="#0d9488"/>
<rect class="matrix" x="807.5" y="350.0" width="24.9" height="24.1" fill="#2563eb"/>
<rect class="matrix" x="831.9" y="350.0" width="24.9" height="24.1" fill="#fde047"/>
<rect class="matrix" x="856.2" y="350.0" width="24.9" height="24.1" fill="#14b8a6"/>
<rect class="matrix" x="880.6" y="350.0" width="24.9" height="24.1" fill="#4f46e5"/>
<rect class="matrix" x="515.0" y="373.6" width="24.9" height="24.1" fill="#4f46e5"/>
<rect class="matrix" x="539.4" y="373.6" width="24.9" height="24.1" fill="#0891b2"/>
<rect class="matrix" x="563.8" y="373.6" width="24.9" height="24.1" fill="#22c55e"/>
<rect class="matrix" x="588.1" y="373.6" width="24.9" height="24.1" fill="#7e22ce"/>
<rect class="matrix" x="612.5" y="373.6" width="24.9" height="24.1" fill="#0d9488"/>
<rect class="matrix" x="636.9" y="373.6" width="24.9" height="24.1" fill="#2563eb"/>
<rect class="matrix" x="661.2" y="373.6" width="24.9" height="24.1" fill="#fde047"/>
<rect class="matrix" x="685.6" y="373.6" width="24.9" height="24.1" fill="#14b8a6"/>
<rect class="matrix" x="710.0" y="373.6" width="24.9" height="24.1" fill="#4f46e5"/>
<rect class="matrix" x="734.4" y="373.6" width="24.9" height="24.1" fill="#0891b2"/>
<rect class="matrix" x="758.8" y="373.6" width="24.9" height="24.1" fill="#22c55e"/>
<rect class="matrix" x="783.1" y="373.6" width="24.9" height="24.1" fill="#7e22ce"/>
<rect class="matrix" x="807.5" y="373.6" width="24.9" height="24.1" fill="#0d9488"/>
<rect class="matrix" x="831.9" y="373.6" width="24.9" height="24.1" fill="#2563eb"/>
<rect class="matrix" x="856.2" y="373.6" width="24.9" height="24.1" fill="#fde047"/>
<rect class="matrix" x="880.6" y="373.6" width="24.9" height="24.1" fill="#14b8a6"/>
<rect class="matrix" x="515.0" y="397.2" width="24.9" height="24.1" fill="#14b8a6"/>
<rect class="matrix" x="539.4" y="397.2" width="24.9" height="24.1" fill="#4f46e5"/>
<rect class="matrix" x="563.8" y="397.2" width="24.9" height="24.1" fill="#0891b2"/>
<rect class="matrix" x="588.1" y="397.2" width="24.9" height="24.1" fill="#22c55e"/>
<rect class="matrix" x="612.5" y="397.2" width="24.9" height="24.1" fill="#7e22ce"/>
<rect class="matrix" x="636.9" y="397.2" width="24.9" height="24.1" fill="#0d9488"/>
<rect class="matrix" x="661.2" y="397.2" width="24.9" height="24.1" fill="#2563eb"/>
<rect class="matrix" x="685.6" y="397.2" width="24.9" height="24.1" fill="#fde047"/>
<rect class="matrix" x="710.0" y="397.2" width="24.9" height="24.1" fill="#14b8a6"/>
<rect class="matrix" x="734.4" y="397.2" width="24.9" height="24.1" fill="#4f46e5"/>
<rect class="matrix" x="758.8" y="397.2" width="24.9" height="24.1" fill="#0891b2"/>
<rect class="matrix" x="783.1" y="397.2" width="24.9" height="24.1" fill="#22c55e"/>
<rect class="matrix" x="807.5" y="397.2" width="24.9" height="24.1" fill="#7e22ce"/>
<rect class="matrix" x="831.9" y="397.2" width="24.9" height="24.1" fill="#0d9488"/>
<rect class="matrix" x="856.2" y="397.2" width="24.9" height="24.1" fill="#2563eb"/>
<rect class="matrix" x="880.6" y="397.2" width="24.9" height="24.1" fill="#fde047"/>
<rect class="matrix" x="515.0" y="420.8" width="24.9" height="24.1" fill="#fde047"/>
<rect class="matrix" x="539.4" y="420.8" width="24.9" height="24.1" fill="#14b8a6"/>
<rect class="matrix" x="563.8" y="420.8" width="24.9" height="24.1" fill="#4f46e5"/>
<rect class="matrix" x="588.1" y="420.8" width="24.9" height="24.1" fill="#0891b2"/>
<rect class="matrix" x="612.5" y="420.8" width="24.9" height="24.1" fill="#22c55e"/>
<rect class="matrix" x="636.9" y="420.8" width="24.9" height="24.1" fill="#7e22ce"/>
<rect class="matrix" x="661.2" y="420.8" width="24.9" height="24.1" fill="#0d9488"/>
<rect class="matrix" x="685.6" y="420.8" width="24.9" height="24.1" fill="#2563eb"/>
<rect class="matrix" x="710.0" y="420.8" width="24.9" height="24.1" fill="#fde047"/>
<rect class="matrix" x="734.4" y="420.8" width="24.9" height="24.1" fill="#14b8a6"/>
<rect class="matrix" x="758.8" y="420.8" width="24.9" height="24.1" fill="#4f46e5"/>
<rect class="matrix" x="783.1" y="420.8" width="24.9" height="24.1" fill="#0891b2"/>
<rect class="matrix" x="807.5" y="420.8" width="24.9" height="24.1" fill="#22c55e"/>
<rect class="matrix" x="831.9" y="420.8" width="24.9" height="24.1" fill="#7e22ce"/>
<rect class="matrix" x="856.2" y="420.8" width="24.9" height="24.1" fill="#0d9488"/>
<rect class="matrix" x="880.6" y="420.8" width="24.9" height="24.1" fill="#2563eb"/>
<rect class="matrix" x="515.0" y="444.4" width="24.9" height="24.1" fill="#2563eb"/>
<rect class="matrix" x="539.4" y="444.4" width="24.9" height="24.1" fill="#fde047"/>
<rect class="matrix" x="563.8" y="444.4" width="24.9" height="24.1" fill="#14b8a6"/>
<rect class="matrix" x="588.1" y="444.4" width="24.9" height="24.1" fill="#4f46e5"/>
<rect class="matrix" x="612.5" y="444.4" width="24.9" height="24.1" fill="#0891b2"/>
<rect class="matrix" x="636.9" y="444.4" width="24.9" height="24.1" fill="#22c55e"/>
<rect class="matrix" x="661.2" y="444.4" width="24.9" height="24.1" fill="#7e22ce"/>
<rect class="matrix" x="685.6" y="444.4" width="24.9" height="24.1" fill="#0d9488"/>
<rect class="matrix" x="710.0" y="444.4" width="24.9" height="24.1" fill="#2563eb"/>
<rect class="matrix" x="734.4" y="444.4" width="24.9" height="24.1" fill="#fde047"/>
<rect class="matrix" x="758.8" y="444.4" width="24.9" height="24.1" fill="#14b8a6"/>
<rect class="matrix" x="783.1" y="444.4" width="24.9" height="24.1" fill="#4f46e5"/>
<rect class="matrix" x="807.5" y="444.4" width="24.9" height="24.1" fill="#0891b2"/>
<rect class="matrix" x="831.9" y="444.4" width="24.9" height="24.1" fill="#22c55e"/>
<rect class="matrix" x="856.2" y="444.4" width="24.9" height="24.1" fill="#7e22ce"/>
<rect class="matrix" x="880.6" y="444.4" width="24.9" height="24.1" fill="#0d9488"/>
<rect x="515" y="552" width="390" height="118" fill="#071013" stroke="#17202a"/>
<rect class="matrix" x="515.0" y="552.0" width="24.9" height="24.1" fill="#0891b2"/>
<rect class="matrix" x="539.4" y="552.0" width="24.9" height="24.1" fill="#22c55e"/>
<rect class="matrix" x="563.8" y="552.0" width="24.9" height="24.1" fill="#7e22ce"/>
<rect class="matrix" x="588.1" y="552.0" width="24.9" height="24.1" fill="#0d9488"/>
<rect class="matrix" x="612.5" y="552.0" width="24.9" height="24.1" fill="#2563eb"/>
<rect class="matrix" x="636.9" y="552.0" width="24.9" height="24.1" fill="#fde047"/>
<rect class="matrix" x="661.2" y="552.0" width="24.9" height="24.1" fill="#14b8a6"/>
<rect class="matrix" x="685.6" y="552.0" width="24.9" height="24.1" fill="#4f46e5"/>
<rect class="matrix" x="710.0" y="552.0" width="24.9" height="24.1" fill="#0891b2"/>
<rect class="matrix" x="734.4" y="552.0" width="24.9" height="24.1" fill="#22c55e"/>
<rect class="matrix" x="758.8" y="552.0" width="24.9" height="24.1" fill="#7e22ce"/>
<rect class="matrix" x="783.1" y="552.0" width="24.9" height="24.1" fill="#0d9488"/>
<rect class="matrix" x="807.5" y="552.0" width="24.9" height="24.1" fill="#2563eb"/>
<rect class="matrix" x="831.9" y="552.0" width="24.9" height="24.1" fill="#fde047"/>
<rect class="matrix" x="856.2" y="552.0" width="24.9" height="24.1" fill="#14b8a6"/>
<rect class="matrix" x="880.6" y="552.0" width="24.9" height="24.1" fill="#4f46e5"/>
<rect class="matrix" x="515.0" y="575.6" width="24.9" height="24.1" fill="#4f46e5"/>
<rect class="matrix" x="539.4" y="575.6" width="24.9" height="24.1" fill="#0891b2"/>
<rect class="matrix" x="563.8" y="575.6" width="24.9" height="24.1" fill="#22c55e"/>
<rect class="matrix" x="588.1" y="575.6" width="24.9" height="24.1" fill="#7e22ce"/>
<rect class="matrix" x="612.5" y="575.6" width="24.9" height="24.1" fill="#0d9488"/>
<rect class="matrix" x="636.9" y="575.6" width="24.9" height="24.1" fill="#2563eb"/>
<rect class="matrix" x="661.2" y="575.6" width="24.9" height="24.1" fill="#fde047"/>
<rect class="matrix" x="685.6" y="575.6" width="24.9" height="24.1" fill="#14b8a6"/>
<rect class="matrix" x="710.0" y="575.6" width="24.9" height="24.1" fill="#4f46e5"/>
<rect class="matrix" x="734.4" y="575.6" width="24.9" height="24.1" fill="#0891b2"/>
<rect class="matrix" x="758.8" y="575.6" width="24.9" height="24.1" fill="#22c55e"/>
<rect class="matrix" x="783.1" y="575.6" width="24.9" height="24.1" fill="#7e22ce"/>
<rect class="matrix" x="807.5" y="575.6" width="24.9" height="24.1" fill="#0d9488"/>
<rect class="matrix" x="831.9" y="575.6" width="24.9" height="24.1" fill="#2563eb"/>
<rect class="matrix" x="856.2" y="575.6" width="24.9" height="24.1" fill="#fde047"/>
<rect class="matrix" x="880.6" y="575.6" width="24.9" height="24.1" fill="#14b8a6"/>
<rect class="matrix" x="515.0" y="599.2" width="24.9" height="24.1" fill="#14b8a6"/>
<rect class="matrix" x="539.4" y="599.2" width="24.9" height="24.1" fill="#4f46e5"/>
<rect class="matrix" x="563.8" y="599.2" width="24.9" height="24.1" fill="#0891b2"/>
<rect class="matrix" x="588.1" y="599.2" width="24.9" height="24.1" fill="#22c55e"/>
<rect class="matrix" x="612.5" y="599.2" width="24.9" height="24.1" fill="#7e22ce"/>
<rect class="matrix" x="636.9" y="599.2" width="24.9" height="24.1" fill="#0d9488"/>
<rect class="matrix" x="661.2" y="599.2" width="24.9" height="24.1" fill="#2563eb"/>
<rect class="matrix" x="685.6" y="599.2" width="24.9" height="24.1" fill="#fde047"/>
<rect class="matrix" x="710.0" y="599.2" width="24.9" height="24.1" fill="#14b8a6"/>
<rect class="matrix" x="734.4" y="599.2" width="24.9" height="24.1" fill="#4f46e5"/>
<rect class="matrix" x="758.8" y="599.2" width="24.9" height="24.1" fill="#0891b2"/>
<rect class="matrix" x="783.1" y="599.2" width="24.9" height="24.1" fill="#22c55e"/>
<rect class="matrix" x="807.5" y="599.2" width="24.9" height="24.1" fill="#7e22ce"/>
<rect class="matrix" x="831.9" y="599.2" width="24.9" height="24.1" fill="#0d9488"/>
<rect class="matrix" x="856.2" y="599.2" width="24.9" height="24.1" fill="#2563eb"/>
<rect class="matrix" x="880.6" y="599.2" width="24.9" height="24.1" fill="#fde047"/>
<rect class="matrix" x="515.0" y="622.8" width="24.9" height="24.1" fill="#fde047"/>
<rect class="matrix" x="539.4" y="622.8" width="24.9" height="24.1" fill="#14b8a6"/>
<rect class="matrix" x="563.8" y="622.8" width="24.9" height="24.1" fill="#4f46e5"/>
<rect class="matrix" x="588.1" y="622.8" width="24.9" height="24.1" fill="#0891b2"/>
<rect class="matrix" x="612.5" y="622.8" width="24.9" height="24.1" fill="#22c55e"/>
<rect class="matrix" x="636.9" y="622.8" width="24.9" height="24.1" fill="#7e22ce"/>
<rect class="matrix" x="661.2" y="622.8" width="24.9" height="24.1" fill="#0d9488"/>
<rect class="matrix" x="685.6" y="622.8" width="24.9" height="24.1" fill="#2563eb"/>
<rect class="matrix" x="710.0" y="622.8" width="24.9" height="24.1" fill="#fde047"/>
<rect class="matrix" x="734.4" y="622.8" width="24.9" height="24.1" fill="#14b8a6"/>
<rect class="matrix" x="758.8" y="622.8" width="24.9" height="24.1" fill="#4f46e5"/>
<rect class="matrix" x="783.1" y="622.8" width="24.9" height="24.1" fill="#0891b2"/>
<rect class="matrix" x="807.5" y="622.8" width="24.9" height="24.1" fill="#22c55e"/>
<rect class="matrix" x="831.9" y="622.8" width="24.9" height="24.1" fill="#7e22ce"/>
<rect class="matrix" x="856.2" y="622.8" width="24.9" height="24.1" fill="#0d9488"/>
<rect class="matrix" x="880.6" y="622.8" width="24.9" height="24.1" fill="#2563eb"/>
<rect class="matrix" x="515.0" y="646.4" width="24.9" height="24.1" fill="#2563eb"/>
<rect class="matrix" x="539.4" y="646.4" width="24.9" height="24.1" fill="#fde047"/>
<rect class="matrix" x="563.8" y="646.4" width="24.9" height="24.1" fill="#14b8a6"/>
<rect class="matrix" x="588.1" y="646.4" width="24.9" height="24.1" fill="#4f46e5"/>
<rect class="matrix" x="612.5" y="646.4" width="24.9" height="24.1" fill="#0891b2"/>
<rect class="matrix" x="636.9" y="646.4" width="24.9" height="24.1" fill="#22c55e"/>
<rect class="matrix" x="661.2" y="646.4" width="24.9" height="24.1" fill="#7e22ce"/>
<rect class="matrix" x="685.6" y="646.4" width="24.9" height="24.1" fill="#0d9488"/>
<rect class="matrix" x="710.0" y="646.4" width="24.9" height="24.1" fill="#2563eb"/>
<rect class="matrix" x="734.4" y="646.4" width="24.9" height="24.1" fill="#fde047"/>
<rect class="matrix" x="758.8" y="646.4" width="24.9" height="24.1" fill="#14b8a6"/>
<rect class="matrix" x="783.1" y="646.4" width="24.9" height="24.1" fill="#4f46e5"/>
<rect class="matrix" x="807.5" y="646.4" width="24.9" height="24.1" fill="#0891b2"/>
<rect class="matrix" x="831.9" y="646.4" width="24.9" height="24.1" fill="#22c55e"/>
<rect class="matrix" x="856.2" y="646.4" width="24.9" height="24.1" fill="#7e22ce"/>
<rect class="matrix" x="880.6" y="646.4" width="24.9" height="24.1" fill="#0d9488"/>
<path class="arrow" d="M920 230 H1000"/><path class="arrow" d="M920 408 H1000"/>
<rect x="1015" y="230" width="230" height="230" fill="#071013" stroke="#17202a"/>
<rect class="matrix" x="1015.0" y="230.0" width="26.1" height="26.1" fill="#0891b2"/>
<rect class="matrix" x="1040.6" y="230.0" width="26.1" height="26.1" fill="#22c55e"/>
<rect class="matrix" x="1066.1" y="230.0" width="26.1" height="26.1" fill="#4c056d"/>
<rect class="matrix" x="1091.7" y="230.0" width="26.1" height="26.1" fill="#4c056d"/>
<rect class="matrix" x="1117.2" y="230.0" width="26.1" height="26.1" fill="#4c056d"/>
<rect class="matrix" x="1142.8" y="230.0" width="26.1" height="26.1" fill="#4c056d"/>
<rect class="matrix" x="1168.3" y="230.0" width="26.1" height="26.1" fill="#4c056d"/>
<rect class="matrix" x="1193.9" y="230.0" width="26.1" height="26.1" fill="#4c056d"/>
<rect class="matrix" x="1219.4" y="230.0" width="26.1" height="26.1" fill="#4c056d"/>
<rect class="matrix" x="1015.0" y="255.6" width="26.1" height="26.1" fill="#4f46e5"/>
<rect class="matrix" x="1040.6" y="255.6" width="26.1" height="26.1" fill="#0891b2"/>
<rect class="matrix" x="1066.1" y="255.6" width="26.1" height="26.1" fill="#22c55e"/>
<rect class="matrix" x="1091.7" y="255.6" width="26.1" height="26.1" fill="#4c056d"/>
<rect class="matrix" x="1117.2" y="255.6" width="26.1" height="26.1" fill="#4c056d"/>
<rect class="matrix" x="1142.8" y="255.6" width="26.1" height="26.1" fill="#4c056d"/>
<rect class="matrix" x="1168.3" y="255.6" width="26.1" height="26.1" fill="#4c056d"/>
<rect class="matrix" x="1193.9" y="255.6" width="26.1" height="26.1" fill="#4c056d"/>
<rect class="matrix" x="1219.4" y="255.6" width="26.1" height="26.1" fill="#4c056d"/>
<rect class="matrix" x="1015.0" y="281.1" width="26.1" height="26.1" fill="#4c056d"/>
<rect class="matrix" x="1040.6" y="281.1" width="26.1" height="26.1" fill="#4f46e5"/>
<rect class="matrix" x="1066.1" y="281.1" width="26.1" height="26.1" fill="#0891b2"/>
<rect class="matrix" x="1091.7" y="281.1" width="26.1" height="26.1" fill="#22c55e"/>
<rect class="matrix" x="1117.2" y="281.1" width="26.1" height="26.1" fill="#4c056d"/>
<rect class="matrix" x="1142.8" y="281.1" width="26.1" height="26.1" fill="#4c056d"/>
<rect class="matrix" x="1168.3" y="281.1" width="26.1" height="26.1" fill="#4c056d"/>
<rect class="matrix" x="1193.9" y="281.1" width="26.1" height="26.1" fill="#4c056d"/>
<rect class="matrix" x="1219.4" y="281.1" width="26.1" height="26.1" fill="#4c056d"/>
<rect class="matrix" x="1015.0" y="306.7" width="26.1" height="26.1" fill="#4c056d"/>
<rect class="matrix" x="1040.6" y="306.7" width="26.1" height="26.1" fill="#4c056d"/>
<rect class="matrix" x="1066.1" y="306.7" width="26.1" height="26.1" fill="#4f46e5"/>
<rect class="matrix" x="1091.7" y="306.7" width="26.1" height="26.1" fill="#0891b2"/>
<rect class="matrix" x="1117.2" y="306.7" width="26.1" height="26.1" fill="#22c55e"/>
<rect class="matrix" x="1142.8" y="306.7" width="26.1" height="26.1" fill="#4c056d"/>
<rect class="matrix" x="1168.3" y="306.7" width="26.1" height="26.1" fill="#4c056d"/>
<rect class="matrix" x="1193.9" y="306.7" width="26.1" height="26.1" fill="#4c056d"/>
<rect class="matrix" x="1219.4" y="306.7" width="26.1" height="26.1" fill="#4c056d"/>
<rect class="matrix" x="1015.0" y="332.2" width="26.1" height="26.1" fill="#4c056d"/>
<rect class="matrix" x="1040.6" y="332.2" width="26.1" height="26.1" fill="#4c056d"/>
<rect class="matrix" x="1066.1" y="332.2" width="26.1" height="26.1" fill="#4c056d"/>
<rect class="matrix" x="1091.7" y="332.2" width="26.1" height="26.1" fill="#4f46e5"/>
<rect class="matrix" x="1117.2" y="332.2" width="26.1" height="26.1" fill="#0891b2"/>
<rect class="matrix" x="1142.8" y="332.2" width="26.1" height="26.1" fill="#22c55e"/>
<rect class="matrix" x="1168.3" y="332.2" width="26.1" height="26.1" fill="#4c056d"/>
<rect class="matrix" x="1193.9" y="332.2" width="26.1" height="26.1" fill="#4c056d"/>
<rect class="matrix" x="1219.4" y="332.2" width="26.1" height="26.1" fill="#4c056d"/>
<rect class="matrix" x="1015.0" y="357.8" width="26.1" height="26.1" fill="#4c056d"/>
<rect class="matrix" x="1040.6" y="357.8" width="26.1" height="26.1" fill="#4c056d"/>
<rect class="matrix" x="1066.1" y="357.8" width="26.1" height="26.1" fill="#4c056d"/>
<rect class="matrix" x="1091.7" y="357.8" width="26.1" height="26.1" fill="#4c056d"/>
<rect class="matrix" x="1117.2" y="357.8" width="26.1" height="26.1" fill="#4f46e5"/>
<rect class="matrix" x="1142.8" y="357.8" width="26.1" height="26.1" fill="#0891b2"/>
<rect class="matrix" x="1168.3" y="357.8" width="26.1" height="26.1" fill="#22c55e"/>
<rect class="matrix" x="1193.9" y="357.8" width="26.1" height="26.1" fill="#4c056d"/>
<rect class="matrix" x="1219.4" y="357.8" width="26.1" height="26.1" fill="#4c056d"/>
<rect class="matrix" x="1015.0" y="383.3" width="26.1" height="26.1" fill="#4c056d"/>
<rect class="matrix" x="1040.6" y="383.3" width="26.1" height="26.1" fill="#4c056d"/>
<rect class="matrix" x="1066.1" y="383.3" width="26.1" height="26.1" fill="#4c056d"/>
<rect class="matrix" x="1091.7" y="383.3" width="26.1" height="26.1" fill="#4c056d"/>
<rect class="matrix" x="1117.2" y="383.3" width="26.1" height="26.1" fill="#4c056d"/>
<rect class="matrix" x="1142.8" y="383.3" width="26.1" height="26.1" fill="#4f46e5"/>
<rect class="matrix" x="1168.3" y="383.3" width="26.1" height="26.1" fill="#0891b2"/>
<rect class="matrix" x="1193.9" y="383.3" width="26.1" height="26.1" fill="#22c55e"/>
<rect class="matrix" x="1219.4" y="383.3" width="26.1" height="26.1" fill="#4c056d"/>
<rect class="matrix" x="1015.0" y="408.9" width="26.1" height="26.1" fill="#4c056d"/>
<rect class="matrix" x="1040.6" y="408.9" width="26.1" height="26.1" fill="#4c056d"/>
<rect class="matrix" x="1066.1" y="408.9" width="26.1" height="26.1" fill="#4c056d"/>
<rect class="matrix" x="1091.7" y="408.9" width="26.1" height="26.1" fill="#4c056d"/>
<rect class="matrix" x="1117.2" y="408.9" width="26.1" height="26.1" fill="#4c056d"/>
<rect class="matrix" x="1142.8" y="408.9" width="26.1" height="26.1" fill="#4c056d"/>
<rect class="matrix" x="1168.3" y="408.9" width="26.1" height="26.1" fill="#4f46e5"/>
<rect class="matrix" x="1193.9" y="408.9" width="26.1" height="26.1" fill="#0891b2"/>
<rect class="matrix" x="1219.4" y="408.9" width="26.1" height="26.1" fill="#22c55e"/>
<rect class="matrix" x="1015.0" y="434.4" width="26.1" height="26.1" fill="#4c056d"/>
<rect class="matrix" x="1040.6" y="434.4" width="26.1" height="26.1" fill="#4c056d"/>
<rect class="matrix" x="1066.1" y="434.4" width="26.1" height="26.1" fill="#4c056d"/>
<rect class="matrix" x="1091.7" y="434.4" width="26.1" height="26.1" fill="#4c056d"/>
<rect class="matrix" x="1117.2" y="434.4" width="26.1" height="26.1" fill="#4c056d"/>
<rect class="matrix" x="1142.8" y="434.4" width="26.1" height="26.1" fill="#4c056d"/>
<rect class="matrix" x="1168.3" y="434.4" width="26.1" height="26.1" fill="#4c056d"/>
<rect class="matrix" x="1193.9" y="434.4" width="26.1" height="26.1" fill="#4f46e5"/>
<rect class="matrix" x="1219.4" y="434.4" width="26.1" height="26.1" fill="#0891b2"/>
<text x="1016" y="188" class="formula">band mask + softmax</text>
<path class="arrow" d="M1130 482 V610 H920"/><path class="arrow" d="M920 610 H958"/>
<circle cx="982" cy="610" r="22" fill="none" stroke="#a7a18b" stroke-width="4"/><text x="972" y="620" class="formula">x</text>
<path class="arrow" d="M1006 610 H1120"/>
<rect x="1140" y="552" width="340" height="118" fill="#071013" stroke="#17202a"/>
<rect class="matrix" x="1140.0" y="552.0" width="21.8" height="24.1" fill="#0891b2"/>
<rect class="matrix" x="1161.2" y="552.0" width="21.8" height="24.1" fill="#22c55e"/>
<rect class="matrix" x="1182.5" y="552.0" width="21.8" height="24.1" fill="#7e22ce"/>
<rect class="matrix" x="1203.8" y="552.0" width="21.8" height="24.1" fill="#0d9488"/>
<rect class="matrix" x="1225.0" y="552.0" width="21.8" height="24.1" fill="#2563eb"/>
<rect class="matrix" x="1246.2" y="552.0" width="21.8" height="24.1" fill="#fde047"/>
<rect class="matrix" x="1267.5" y="552.0" width="21.8" height="24.1" fill="#14b8a6"/>
<rect class="matrix" x="1288.8" y="552.0" width="21.8" height="24.1" fill="#4f46e5"/>
<rect class="matrix" x="1310.0" y="552.0" width="21.8" height="24.1" fill="#0891b2"/>
<rect class="matrix" x="1331.2" y="552.0" width="21.8" height="24.1" fill="#22c55e"/>
<rect class="matrix" x="1352.5" y="552.0" width="21.8" height="24.1" fill="#7e22ce"/>
<rect class="matrix" x="1373.8" y="552.0" width="21.8" height="24.1" fill="#0d9488"/>
<rect class="matrix" x="1395.0" y="552.0" width="21.8" height="24.1" fill="#2563eb"/>
<rect class="matrix" x="1416.2" y="552.0" width="21.8" height="24.1" fill="#fde047"/>
<rect class="matrix" x="1437.5" y="552.0" width="21.8" height="24.1" fill="#14b8a6"/>
<rect class="matrix" x="1458.8" y="552.0" width="21.8" height="24.1" fill="#4f46e5"/>
<rect class="matrix" x="1140.0" y="575.6" width="21.8" height="24.1" fill="#4f46e5"/>
<rect class="matrix" x="1161.2" y="575.6" width="21.8" height="24.1" fill="#0891b2"/>
<rect class="matrix" x="1182.5" y="575.6" width="21.8" height="24.1" fill="#22c55e"/>
<rect class="matrix" x="1203.8" y="575.6" width="21.8" height="24.1" fill="#7e22ce"/>
<rect class="matrix" x="1225.0" y="575.6" width="21.8" height="24.1" fill="#0d9488"/>
<rect class="matrix" x="1246.2" y="575.6" width="21.8" height="24.1" fill="#2563eb"/>
<rect class="matrix" x="1267.5" y="575.6" width="21.8" height="24.1" fill="#fde047"/>
<rect class="matrix" x="1288.8" y="575.6" width="21.8" height="24.1" fill="#14b8a6"/>
<rect class="matrix" x="1310.0" y="575.6" width="21.8" height="24.1" fill="#4f46e5"/>
<rect class="matrix" x="1331.2" y="575.6" width="21.8" height="24.1" fill="#0891b2"/>
<rect class="matrix" x="1352.5" y="575.6" width="21.8" height="24.1" fill="#22c55e"/>
<rect class="matrix" x="1373.8" y="575.6" width="21.8" height="24.1" fill="#7e22ce"/>
<rect class="matrix" x="1395.0" y="575.6" width="21.8" height="24.1" fill="#0d9488"/>
<rect class="matrix" x="1416.2" y="575.6" width="21.8" height="24.1" fill="#2563eb"/>
<rect class="matrix" x="1437.5" y="575.6" width="21.8" height="24.1" fill="#fde047"/>
<rect class="matrix" x="1458.8" y="575.6" width="21.8" height="24.1" fill="#14b8a6"/>
<rect class="matrix" x="1140.0" y="599.2" width="21.8" height="24.1" fill="#14b8a6"/>
<rect class="matrix" x="1161.2" y="599.2" width="21.8" height="24.1" fill="#4f46e5"/>
<rect class="matrix" x="1182.5" y="599.2" width="21.8" height="24.1" fill="#0891b2"/>
<rect class="matrix" x="1203.8" y="599.2" width="21.8" height="24.1" fill="#22c55e"/>
<rect class="matrix" x="1225.0" y="599.2" width="21.8" height="24.1" fill="#7e22ce"/>
<rect class="matrix" x="1246.2" y="599.2" width="21.8" height="24.1" fill="#0d9488"/>
<rect class="matrix" x="1267.5" y="599.2" width="21.8" height="24.1" fill="#2563eb"/>
<rect class="matrix" x="1288.8" y="599.2" width="21.8" height="24.1" fill="#fde047"/>
<rect class="matrix" x="1310.0" y="599.2" width="21.8" height="24.1" fill="#14b8a6"/>
<rect class="matrix" x="1331.2" y="599.2" width="21.8" height="24.1" fill="#4f46e5"/>
<rect class="matrix" x="1352.5" y="599.2" width="21.8" height="24.1" fill="#0891b2"/>
<rect class="matrix" x="1373.8" y="599.2" width="21.8" height="24.1" fill="#22c55e"/>
<rect class="matrix" x="1395.0" y="599.2" width="21.8" height="24.1" fill="#7e22ce"/>
<rect class="matrix" x="1416.2" y="599.2" width="21.8" height="24.1" fill="#0d9488"/>
<rect class="matrix" x="1437.5" y="599.2" width="21.8" height="24.1" fill="#2563eb"/>
<rect class="matrix" x="1458.8" y="599.2" width="21.8" height="24.1" fill="#fde047"/>
<rect class="matrix" x="1140.0" y="622.8" width="21.8" height="24.1" fill="#fde047"/>
<rect class="matrix" x="1161.2" y="622.8" width="21.8" height="24.1" fill="#14b8a6"/>
<rect class="matrix" x="1182.5" y="622.8" width="21.8" height="24.1" fill="#4f46e5"/>
<rect class="matrix" x="1203.8" y="622.8" width="21.8" height="24.1" fill="#0891b2"/>
<rect class="matrix" x="1225.0" y="622.8" width="21.8" height="24.1" fill="#22c55e"/>
<rect class="matrix" x="1246.2" y="622.8" width="21.8" height="24.1" fill="#7e22ce"/>
<rect class="matrix" x="1267.5" y="622.8" width="21.8" height="24.1" fill="#0d9488"/>
<rect class="matrix" x="1288.8" y="622.8" width="21.8" height="24.1" fill="#2563eb"/>
<rect class="matrix" x="1310.0" y="622.8" width="21.8" height="24.1" fill="#fde047"/>
<rect class="matrix" x="1331.2" y="622.8" width="21.8" height="24.1" fill="#14b8a6"/>
<rect class="matrix" x="1352.5" y="622.8" width="21.8" height="24.1" fill="#4f46e5"/>
<rect class="matrix" x="1373.8" y="622.8" width="21.8" height="24.1" fill="#0891b2"/>
<rect class="matrix" x="1395.0" y="622.8" width="21.8" height="24.1" fill="#22c55e"/>
<rect class="matrix" x="1416.2" y="622.8" width="21.8" height="24.1" fill="#7e22ce"/>
<rect class="matrix" x="1437.5" y="622.8" width="21.8" height="24.1" fill="#0d9488"/>
<rect class="matrix" x="1458.8" y="622.8" width="21.8" height="24.1" fill="#2563eb"/>
<rect class="matrix" x="1140.0" y="646.4" width="21.8" height="24.1" fill="#2563eb"/>
<rect class="matrix" x="1161.2" y="646.4" width="21.8" height="24.1" fill="#fde047"/>
<rect class="matrix" x="1182.5" y="646.4" width="21.8" height="24.1" fill="#14b8a6"/>
<rect class="matrix" x="1203.8" y="646.4" width="21.8" height="24.1" fill="#4f46e5"/>
<rect class="matrix" x="1225.0" y="646.4" width="21.8" height="24.1" fill="#0891b2"/>
<rect class="matrix" x="1246.2" y="646.4" width="21.8" height="24.1" fill="#22c55e"/>
<rect class="matrix" x="1267.5" y="646.4" width="21.8" height="24.1" fill="#7e22ce"/>
<rect class="matrix" x="1288.8" y="646.4" width="21.8" height="24.1" fill="#0d9488"/>
<rect class="matrix" x="1310.0" y="646.4" width="21.8" height="24.1" fill="#2563eb"/>
<rect class="matrix" x="1331.2" y="646.4" width="21.8" height="24.1" fill="#fde047"/>
<rect class="matrix" x="1352.5" y="646.4" width="21.8" height="24.1" fill="#14b8a6"/>
<rect class="matrix" x="1373.8" y="646.4" width="21.8" height="24.1" fill="#4f46e5"/>
<rect class="matrix" x="1395.0" y="646.4" width="21.8" height="24.1" fill="#0891b2"/>
<rect class="matrix" x="1416.2" y="646.4" width="21.8" height="24.1" fill="#22c55e"/>
<rect class="matrix" x="1437.5" y="646.4" width="21.8" height="24.1" fill="#7e22ce"/>
<rect class="matrix" x="1458.8" y="646.4" width="21.8" height="24.1" fill="#0d9488"/>
<text x="1220" y="704" class="muted">local O</text>
</svg>
